<?xml version="1.0" standalone="no"?>
<!DOCTYPE svg PUBLIC "-//W3C//DTD SVG 20010904//EN"
 "http://www.w3.org/TR/2001/REC-SVG-20010904/DTD/svg10.dtd">
<svg version="1.0" xmlns="http://www.w3.org/2000/svg"
 width="1066.000000pt" height="1066.000000pt" viewBox="0 0 1066.000000 1066.000000"
 preserveAspectRatio="xMidYMid meet">
<metadata>
Created by potrace 1.14, written by Peter Selinger 2001-2017
</metadata>
<g transform="translate(0.000000,1066.000000) scale(0.100000,-0.100000)"
fill="#000000" stroke="none">
<path d="M0 5325 l0 -5325 5330 0 5330 0 0 5325 0 5325 -5330 0 -5330 0 0
-5325z m5862 4355 c832 -48 1654 -343 2223 -798 157 -126 289 -254 636 -617
53 -55 141 -147 197 -205 55 -58 97 -107 94 -110 -4 -3 -34 -36 -68 -75 -125
-145 -488 -560 -500 -572 -6 -7 -15 -9 -19 -5 -5 4 -5 2 -2 -4 8 -14 -17 -37
-28 -26 -5 4 -5 2 -2 -5 4 -6 -27 -51 -74 -105 -45 -51 -94 -106 -108 -123
-14 -16 -89 -102 -166 -189 -77 -87 -174 -198 -215 -246 -41 -47 -93 -107
-116 -133 l-41 -47 -154 162 c-468 491 -624 649 -684 693 -270 200 -597 328
-945 370 -138 17 -434 19 -586 4 -126 -12 -329 -56 -459 -100 -176 -59 -423
-191 -585 -312 -148 -111 -309 -278 -425 -442 -373 -523 -522 -1236 -409
-1950 46 -291 152 -602 286 -833 47 -82 144 -231 157 -242 4 -3 22 -25 40 -50
54 -72 249 -260 336 -325 298 -224 597 -350 965 -407 118 -18 187 -23 375 -23
249 0 373 14 555 61 336 89 565 197 759 359 93 78 110 96 245 260 59 72 135
164 169 205 34 41 72 85 85 98 12 12 22 25 22 27 0 5 240 296 270 328 16 18
21 15 121 -80 285 -268 476 -447 634 -593 82 -76 186 -174 305 -287 47 -44
121 -113 165 -154 44 -41 118 -111 166 -157 48 -46 94 -88 103 -95 19 -14 38
12 -234 -312 -69 -82 -177 -212 -240 -289 -215 -264 -512 -541 -761 -711 -520
-353 -1233 -600 -1929 -667 -173 -17 -682 -17 -865 0 -1148 105 -2175 655
-2887 1547 -211 264 -440 664 -579 1010 -337 841 -425 1811 -249 2745 113 600
360 1201 685 1665 42 61 81 112 86 113 5 2 9 8 9 14 0 21 217 275 350 410 112
114 270 255 366 328 32 25 61 48 64 51 7 8 257 180 300 206 784 476 1638 687
2562 633z"/>
<path d="M5305 9384 c-616 -59 -1017 -165 -1494 -395 -295 -142 -575 -325
-821 -537 -79 -67 -329 -318 -385 -386 -22 -26 -52 -62 -66 -80 -395 -481
-690 -1138 -814 -1812 -54 -293 -69 -479 -69 -859 0 -390 16 -585 73 -885 84
-442 249 -904 443 -1244 22 -39 52 -91 65 -115 88 -154 269 -401 412 -560 300
-333 638 -599 1029 -808 438 -235 844 -363 1392 -439 147 -20 665 -30 860 -15
646 48 1330 273 1821 601 292 195 465 359 792 750 122 146 228 272 235 281 11
14 3 26 -60 85 -103 99 -242 229 -322 304 -38 36 -81 76 -96 90 -14 14 -89 84
-165 155 -77 72 -180 169 -230 216 -117 112 -160 149 -173 149 -8 0 -52 -48
-109 -120 -46 -57 -137 -167 -147 -175 -6 -5 -24 -28 -40 -50 -16 -22 -46 -58
-65 -81 -20 -22 -49 -58 -66 -80 -16 -21 -69 -78 -116 -125 -221 -219 -495
-371 -863 -478 -532 -156 -1109 -141 -1626 42 -142 50 -362 161 -495 248 -616
407 -998 1068 -1096 1899 -14 123 -14 577 0 700 82 699 376 1292 842 1702 114
100 161 137 249 193 41 26 87 56 101 65 36 25 252 133 330 165 305 125 659
184 1033 172 396 -13 704 -87 1023 -246 243 -121 375 -223 603 -463 85 -89
205 -214 265 -276 l110 -112 75 87 c41 48 131 151 200 229 69 77 150 170 180
205 30 35 73 84 96 109 22 25 52 59 66 75 56 65 263 302 295 338 19 21 33 42
31 47 -3 10 -272 292 -418 439 -418 421 -897 693 -1516 860 -362 97 -630 132
-1034 136 -162 2 -313 1 -335 -1z m775 -342 c170 -23 416 -72 518 -104 36 -11
72 -21 81 -23 43 -9 239 -77 341 -119 213 -88 396 -189 585 -324 140 -100 226
-176 409 -361 l169 -170 -35 -43 c-20 -24 -48 -56 -63 -72 -15 -16 -86 -97
-158 -180 -73 -83 -164 -187 -203 -232 l-72 -81 -113 120 c-63 66 -142 147
-176 180 -34 33 -60 64 -56 70 3 6 1 7 -5 3 -7 -4 -43 18 -83 50 -83 66 -260
179 -357 228 -417 210 -860 307 -1346 293 -395 -11 -697 -70 -1013 -200 -179
-74 -406 -196 -513 -276 -19 -14 -38 -25 -42 -23 -5 1 -8 -2 -8 -6 0 -5 -21
-24 -47 -42 -144 -101 -324 -278 -473 -464 -295 -368 -511 -857 -594 -1346
-39 -232 -48 -339 -48 -610 0 -417 43 -697 164 -1070 296 -912 1006 -1583
1914 -1809 288 -71 641 -102 944 -81 365 25 762 134 1094 301 275 138 488 311
691 559 38 47 93 113 123 148 l54 62 31 -26 c18 -15 93 -84 167 -154 74 -69
192 -180 263 -245 70 -66 126 -123 125 -127 -11 -28 -294 -351 -386 -438 -150
-144 -220 -200 -392 -315 -235 -157 -481 -271 -815 -379 -271 -87 -554 -145
-812 -166 -150 -12 -551 -12 -709 0 -159 12 -406 53 -577 95 -192 48 -502 154
-593 203 -10 6 -50 25 -89 42 -70 31 -268 138 -315 170 -14 10 -59 39 -100 65
-203 130 -540 411 -523 438 3 5 1 7 -4 4 -24 -15 -280 283 -407 474 -136 203
-172 266 -261 452 -127 266 -203 473 -269 736 -91 363 -121 624 -121 1066 0
371 19 586 74 855 50 245 140 549 206 695 12 28 26 61 30 75 4 14 45 102 91
195 225 456 521 829 912 1146 67 54 141 111 165 126 23 15 44 31 47 35 3 4 68
46 145 93 287 177 627 323 965 414 176 47 403 85 695 115 22 2 171 2 330 1
225 -2 325 -7 445 -23z"/>
<path d="M5205 8754 c-493 -48 -991 -216 -1408 -477 -504 -314 -867 -709
-1135 -1233 -89 -175 -119 -247 -188 -444 -143 -414 -205 -805 -204 -1290 0
-358 36 -674 111 -975 31 -125 79 -285 104 -345 7 -19 30 -78 51 -130 120
-311 316 -637 544 -905 99 -116 295 -305 411 -396 24 -18 49 -38 54 -42 14
-12 226 -156 272 -186 43 -27 380 -199 433 -221 573 -233 1225 -313 1828 -224
734 107 1319 382 1736 815 59 62 111 120 117 130 8 15 -2 29 -58 83 -38 36
-73 66 -78 66 -6 0 -54 -47 -108 -105 -267 -285 -589 -490 -1001 -636 -366
-130 -710 -189 -1094 -189 -465 1 -848 74 -1238 235 -192 79 -429 212 -586
328 -175 128 -206 154 -337 282 -465 454 -772 1050 -897 1745 -70 387 -72 948
-4 1320 42 233 136 562 200 705 10 22 37 82 60 134 223 509 620 978 1080 1279
491 321 1014 481 1636 499 328 10 714 -40 994 -128 220 -70 507 -197 650 -287
36 -23 79 -49 95 -58 68 -38 211 -153 328 -264 l69 -65 64 70 c35 38 64 76 64
83 0 25 -239 237 -363 322 -178 123 -394 235 -587 305 -41 15 -91 33 -111 40
-161 60 -518 137 -743 160 -182 18 -564 18 -761 -1z"/>
</g>
</svg>
